<?xml version="1.0" standalone="no"?>
<!DOCTYPE svg PUBLIC "-//W3C//DTD SVG 20010904//EN"
 "http://www.w3.org/TR/2001/REC-SVG-20010904/DTD/svg10.dtd">
<svg version="1.0" xmlns="http://www.w3.org/2000/svg"
 width="700.000000pt" height="700.000000pt" viewBox="0 0 700.000000 700.000000"
 preserveAspectRatio="xMidYMid meet">
<metadata>
Created by potrace 1.11, written by Peter Selinger 2001-2013
</metadata>
<g transform="translate(0.000000,700.000000) scale(0.100000,-0.100000)"
fill="#000000" stroke="none">
<path d="M275 6991 c-107 -27 -198 -102 -243 -200 -38 -80 -38 -201 0 -282 41
-89 138 -174 221 -194 15 -4 27 -12 27 -17 0 -8 185 -429 368 -838 71 -160 82
-178 116 -194 30 -14 97 -16 569 -16 l535 0 6 -27 c3 -16 8 -48 10 -73 16
-145 82 -362 154 -505 64 -129 178 -295 259 -378 l27 -28 -494 -494 -494 -494
-50 7 c-86 11 -259 5 -341 -12 -480 -97 -852 -484 -929 -966 -16 -97 -14 -298
3 -380 6 -30 13 -64 15 -75 21 -108 115 -308 196 -416 192 -257 451 -410 783
-464 l37 -6 0 -300 c0 -327 3 -351 56 -386 26 -17 64 -18 574 -20 300 -1 548
-2 552 -2 4 -1 17 -21 29 -47 39 -76 129 -149 214 -171 47 -12 141 -10 188 4
91 26 170 90 212 174 21 41 27 60 39 140 2 14 0 49 -6 79 -31 173 -175 290
-350 286 -63 -2 -87 -8 -141 -34 -69 -34 -132 -96 -161 -157 -10 -19 -22 -35
-29 -36 -50 -4 -915 -4 -928 1 -13 4 -15 36 -15 238 0 127 2 232 5 233 3 0 23
2 43 5 158 19 387 114 524 215 151 113 293 287 367 450 34 74 72 182 81 229 3
14 8 36 11 50 4 14 9 97 11 185 3 132 0 176 -16 250 -81 368 -291 644 -622
815 l-87 46 447 446 447 447 95 -64 c184 -124 425 -224 605 -250 22 -4 47 -8
55 -10 65 -17 362 -24 435 -11 17 3 50 9 75 12 67 9 272 63 287 76 7 6 13 8
13 5 0 -5 60 19 150 61 62 29 173 95 235 139 l60 43 404 -404 c223 -223 403
-407 401 -409 -3 -3 -42 -7 -87 -11 -45 -3 -87 -8 -95 -11 -7 -2 -31 -7 -53
-9 -155 -19 -410 -117 -565 -215 -269 -173 -479 -404 -610 -676 -59 -122 -84
-191 -115 -315 -111 -451 -34 -913 217 -1290 133 -199 325 -383 528 -506 164
-100 395 -185 565 -209 28 -4 59 -10 70 -12 48 -11 329 -9 406 2 141 21 151
23 240 49 192 56 338 127 511 248 142 99 321 290 424 450 172 268 257 579 249
911 -3 131 -11 204 -40 340 -26 125 -128 366 -209 492 -90 140 -239 308 -351
393 -33 25 -62 49 -65 52 -13 16 -161 105 -242 146 -95 48 -294 118 -364 130
-38 6 -77 42 -545 510 l-503 503 34 38 c19 21 37 40 40 43 19 17 103 136 143
200 112 183 194 413 221 625 4 28 9 62 12 78 l6 27 584 0 584 0 0 -65 0 -64
-47 -15 c-197 -59 -338 -203 -399 -407 -27 -87 -22 -237 9 -326 46 -134 124
-236 235 -309 53 -36 154 -77 217 -88 102 -20 241 -2 340 44 206 94 335 287
340 510 7 273 -161 505 -421 580 l-40 12 -1 138 c-1 126 -3 142 -23 169 -12
17 -31 36 -43 43 -16 9 -196 12 -677 13 -360 1 -658 3 -661 4 -3 0 -6 7 -6 14
-1 60 -22 194 -44 272 -56 200 -116 330 -227 499 l-65 98 81 81 81 81 673 0
c370 1 680 0 688 -2 8 -2 24 -22 34 -44 11 -23 39 -61 62 -85 186 -188 512
-98 581 161 12 43 10 152 -3 184 -7 17 -11 32 -8 32 2 0 -8 19 -23 43 -40 62
-96 112 -160 144 -49 24 -70 28 -143 28 -70 -1 -94 -5 -140 -26 -65 -31 -140
-102 -166 -158 -11 -22 -23 -41 -29 -42 -5 0 -329 -2 -720 -3 -390 -2 -718 -4
-728 -5 -10 0 -67 -48 -126 -106 -59 -58 -111 -105 -115 -105 -3 0 -21 13 -39
29 -62 57 -92 82 -132 109 -22 15 -42 29 -45 32 -26 28 -302 170 -330 170 -9
0 -20 4 -25 8 -10 9 -101 39 -140 46 -11 2 -38 9 -60 14 -22 6 -58 13 -80 17
-22 3 -63 9 -91 13 -53 9 -351 7 -394 -1 -14 -3 -43 -8 -64 -12 -233 -34 -490
-146 -710 -309 -121 -89 -294 -271 -363 -381 -158 -251 -240 -467 -269 -706
-4 -30 -8 -61 -10 -69 -1 -8 -3 -17 -3 -21 -1 -3 -220 -5 -487 -5 -422 1 -488
3 -496 16 -5 8 -92 200 -193 425 l-183 410 32 25 c59 47 100 95 125 150 35 73
36 199 3 273 -42 95 -124 171 -214 198 -45 14 -146 19 -183 10z"/>
</g>
</svg>
