<?xml version="1.0" standalone="no"?>
<!DOCTYPE svg PUBLIC "-//W3C//DTD SVG 20010904//EN"
 "http://www.w3.org/TR/2001/REC-SVG-20010904/DTD/svg10.dtd">
<svg version="1.0" xmlns="http://www.w3.org/2000/svg"
 width="512.000000pt" height="512.000000pt" viewBox="0 0 512.000000 512.000000"
 preserveAspectRatio="xMidYMid meet">
<metadata>
Created by potrace 1.11, written by Peter Selinger 2001-2013
</metadata>
<g transform="translate(0.000000,512.000000) scale(0.100000,-0.100000)"
fill="#000000" stroke="none">
<path d="M2375 5104 c-536 -55 -953 -212 -1355 -512 -148 -111 -381 -344 -492
-492 -211 -283 -354 -581 -438 -915 -57 -228 -75 -373 -75 -625 0 -252 18
-397 75 -625 114 -453 335 -841 669 -1176 335 -334 723 -555 1176 -669 228
-57 373 -75 625 -75 252 0 397 18 625 75 453 114 841 335 1176 669 334 335
555 723 669 1176 57 228 75 373 75 625 0 252 -18 397 -75 625 -114 453 -335
841 -669 1176 -394 393 -876 636 -1426 720 -125 19 -463 33 -560 23z m1141
-603 c569 -282 983 -790 1139 -1396 61 -240 83 -469 65 -690 -17 -214 -14
-206 -85 -222 -278 -60 -1468 -318 -1914 -414 -305 -66 -557 -122 -559 -124
-3 -3 2 -22 11 -42 70 -160 32 -350 -90 -464 -44 -41 -307 -199 -379 -228 -95
-38 -229 -30 -330 19 -86 42 -145 111 -244 282 -46 82 -87 148 -90 148 -3 0
-37 -40 -75 -90 -38 -49 -72 -90 -76 -90 -23 0 -192 256 -265 401 -44 88 -114
258 -114 277 0 5 55 14 123 21 226 22 185 0 375 200 1277 1349 1361 1434 1522
1564 146 116 298 189 508 242 194 49 373 50 497 4 94 -35 127 -105 101 -209
-49 -189 -216 -369 -453 -487 -62 -31 -116 -53 -120 -50 -17 17 146 338 206
405 37 42 35 57 -19 106 -57 51 -135 87 -200 93 -54 5 -58 4 -77 -23 -31 -43
-148 -345 -188 -482 -89 -310 -84 -416 23 -519 47 -45 146 -102 158 -91 3 4 1
36 -6 71 -12 66 -6 129 24 227 10 35 19 46 42 53 47 15 371 14 437 -1 157 -36
215 -180 112 -278 -42 -39 -186 -113 -287 -148 -135 -46 -248 -44 -248 4 0 23
-10 26 -28 8 -39 -39 16 -175 110 -270 l59 -61 87 5 c211 13 419 134 494 287
33 65 32 221 0 301 -47 117 -151 215 -264 248 -32 9 -58 19 -58 22 0 3 35 28
76 55 228 150 306 357 230 607 -46 153 -208 288 -411 343 -77 21 -253 30 -330
17 -33 -5 -62 -8 -64 -7 -6 6 413 445 425 445 6 0 73 -31 150 -69z"/>
<path d="M1760 1574 c-85 -18 -242 -52 -347 -75 -106 -23 -193 -46 -193 -51 0
-23 164 -290 194 -316 46 -41 97 -56 166 -49 49 4 78 17 200 88 79 45 156 94
172 107 73 61 91 182 41 279 -32 64 -23 63 -233 17z"/>
</g>
</svg>
