<?xml version="1.0" standalone="no"?>
<!DOCTYPE svg PUBLIC "-//W3C//DTD SVG 20010904//EN"
 "http://www.w3.org/TR/2001/REC-SVG-20010904/DTD/svg10.dtd">
<svg version="1.0" xmlns="http://www.w3.org/2000/svg"
 width="520.000000pt" height="520.000000pt" viewBox="0 0 520.000000 520.000000"
 preserveAspectRatio="xMidYMid meet">
<metadata>
Created by potrace 1.11, written by Peter Selinger 2001-2013
</metadata>
<g transform="translate(0.000000,520.000000) scale(0.100000,-0.100000)"
fill="#000000" stroke="none">
<path d="M2435 5184 c-355 -24 -738 -132 -1045 -295 -119 -63 -318 -196 -430
-286 -308 -248 -588 -622 -744 -994 -138 -331 -199 -640 -199 -1009 0 -532
139 -996 428 -1430 109 -164 196 -271 325 -400 346 -346 789 -589 1260 -694
209 -46 338 -59 570 -59 532 0 996 139 1430 428 164 110 267 193 399 326 348
348 590 786 695 1259 46 209 59 338 59 570 0 532 -139 996 -428 1430 -201 301
-418 519 -716 719 -328 221 -672 353 -1069 411 -132 19 -415 32 -535 24z
m1102 -594 c544 -257 958 -723 1148 -1292 89 -268 122 -495 111 -778 -7 -187
-17 -268 -34 -279 -6 -3 -584 -130 -1284 -280 -700 -151 -1276 -276 -1280
-278 -4 -2 2 -24 12 -49 31 -72 43 -162 31 -230 -16 -85 -63 -177 -118 -232
-53 -52 -335 -219 -417 -247 -58 -19 -166 -21 -227 -5 -136 37 -211 109 -327
313 -46 81 -87 149 -91 151 -5 3 -42 -37 -84 -90 l-75 -95 -45 58 c-73 95
-160 234 -214 339 -54 106 -123 272 -123 296 0 11 16 17 58 21 31 4 106 12
166 18 l108 12 707 746 c389 410 761 797 827 860 215 205 359 300 557 366 167
56 285 78 422 79 125 1 228 -21 283 -59 80 -57 70 -205 -26 -355 -51 -80 -174
-199 -274 -264 -84 -55 -221 -120 -239 -114 -22 7 150 345 209 410 33 36 34
40 21 65 -33 62 -182 143 -262 143 -44 0 -58 -16 -101 -119 -134 -312 -228
-653 -211 -766 13 -91 110 -202 214 -245 41 -16 47 -9 33 39 -7 21 -12 61 -12
88 0 51 34 201 48 215 5 5 61 14 125 20 133 14 328 0 393 -27 131 -54 158
-182 58 -273 -97 -89 -360 -189 -471 -180 -50 4 -79 21 -67 39 2 4 -1 11 -7
15 -16 10 -29 -15 -29 -59 0 -50 46 -139 106 -206 64 -72 90 -82 184 -71 213
25 399 135 476 284 49 93 41 243 -17 358 -49 95 -178 196 -275 214 -19 3 -34
9 -34 13 0 3 24 20 53 38 132 80 238 203 272 315 33 112 12 289 -47 400 -63
118 -223 226 -399 268 -88 21 -249 26 -341 11 -27 -4 -48 -6 -48 -4 0 11 427
453 438 453 7 0 61 -22 119 -50z"/>
<path d="M1610 1559 c-200 -44 -366 -82 -369 -84 -5 -6 15 -44 103 -191 82
-137 123 -174 205 -182 79 -7 108 3 267 94 168 96 186 110 214 169 32 66 28
156 -10 223 -17 28 -34 52 -38 51 -4 0 -171 -37 -372 -80z"/>
</g>
</svg>
