<svg version="1" xmlns="http://www.w3.org/2000/svg" width="933.333" height="933.333" viewBox="0 0 700.000000 700.000000"><path d="M321.5 1.1C221.1 9.7 131.6 59 70.2 139.8 32.9 188.7 8.9 249.9 1.8 313.5c-1.7 15.5-1.7 57.5 0 73 6.3 56.9 25.4 109.8 56.7 157C86 584.9 123 620.9 165.2 647.1c44.7 27.8 92.4 44.3 148.3 51.1 13 1.6 60 1.6 73 0 72.9-8.9 134.9-35.3 188.5-80.3 14.4-12.1 36.8-34.9 48.4-49.4 62.2-77.6 88.1-178 71.5-277.3-10-60.4-36.4-117.4-76.6-165.9-11.3-13.6-38.5-40-52.3-50.6C509.6 31 447.7 7 376.5 1c-14-1.1-40.7-1.1-55 .1zm146.7 75.5c58 24.7 108.4 69.9 140.5 126.1 28.2 49.1 42.4 110 38.4 164.9-1.7 24.7-2.9 31.3-5.5 31.9-1.1.3-62.8 13.6-137.1 29.5-74.2 16-151.6 32.6-171.9 37-20.3 4.4-37.1 8.2-37.4 8.5-.3.3.5 2.6 1.7 5.3 9.8 21.2 5.2 47-11.4 63.6-4.7 4.7-10.7 8.7-25.6 17.2-24.3 14-26.1 14.9-34 16.9-8.8 2.4-24 1.6-32.6-1.6-8.6-3.2-18.9-10.5-24.3-17.1-2.5-3.1-9.6-14.5-15.9-25.3-6.2-10.8-11.7-19.5-12.1-19.3-.4.2-5 5.7-10.1 12.2-5.2 6.6-9.8 12.1-10.4 12.3-1.3.4-14.9-17.9-23.7-31.9-3.8-6.2-10.1-17.6-13.9-25.3-6.5-13.3-16-36.5-15.3-37.4.2-.2 10.6-1.6 23.2-3l22.8-2.6L204 343c93-98.1 111.7-117.4 128.5-132.4 27.1-24.1 47.8-35.3 80.7-43.5 32.5-8.2 58-8 75.5.5 6.4 3.1 9 6.6 10.5 13.9 2.1 9.9-2.8 25.2-12.7 39-9.6 13.5-29.1 30.2-45.5 39.2-6.9 3.7-23 10.6-23.5 10.1-.7-.7 7.5-19.1 14.4-32.3 8.7-16.5 13.2-23.5 17.3-27l3-2.5-2.3-3.6c-5.7-9.2-24.3-19.3-35.7-19.4-4.9 0-7.9 3.8-13.5 17-17.7 41.8-30.2 86.4-28.4 101.6.8 7.3 6 16.6 12.6 22.6 6.5 5.9 19.8 13.5 21.1 12.2.5-.5.2-3.4-.6-6.4-2.5-9.5-1.6-20.3 3-36.1l1.7-5.6 8.8-1.2c12-1.5 42.8-1.3 52.1.3 9.7 1.7 13.8 3.5 19 8.3 5.1 4.6 7 8.6 7 15-.1 10.6-6.6 17.8-23.9 26.7-19 9.7-39.3 15.5-49.4 14.1-6.2-.8-7.7-1.9-7.7-5.6 0-1.6-.4-2.9-.8-2.9-1.5 0-4 3.4-4.7 6.2-.8 3.2 1.8 12.9 4.8 17.8 3.4 5.6 13.6 16.9 18 20.1 3.5 2.5 4.9 2.9 10.9 2.9 21.3 0 45.6-10.4 60.8-25.9 11-11.3 14.9-21.6 13.7-36.9-2.1-26.3-19.5-46.6-45.6-53.2l-4.4-1.1 7.4-4.8c17.3-11.2 26.8-20.7 33.2-33 6.1-11.7 7.2-16.3 7.1-29.1-.3-21.1-5.8-35.6-18.4-48.1-8.3-8.3-15-12.6-28-18.2-14.5-6.2-24.3-8.1-41-8.1-8 .1-17.4.6-20.9 1.2-3.6.6-6.7 1-6.9.7-.3-.3 57.7-62.3 58.5-62.5.1 0 3.9 1.6 8.5 3.6z"/><path d="M223 489.5c-23.9 5.2-46.7 10.2-50.7 11l-7.2 1.6 11.1 19.2c6.1 10.6 12.4 20.6 14 22.3 7.5 8 21.2 11.5 31.2 8.1 7-2.4 41.5-22.7 45.9-27.1 5.9-5.8 8.1-11.5 8.2-21.2 0-7.4-.3-8.7-3.9-15.7-2.1-4.3-4.1-7.7-4.5-7.6-.3 0-20.2 4.3-44.1 9.4z"/></svg>