<?xml version="1.0" standalone="no"?>
<!DOCTYPE svg PUBLIC "-//W3C//DTD SVG 20010904//EN"
 "http://www.w3.org/TR/2001/REC-SVG-20010904/DTD/svg10.dtd">
<svg version="1.0" xmlns="http://www.w3.org/2000/svg"
 width="1024.000000pt" height="1024.000000pt" viewBox="0 0 1024.000000 1024.000000"
 preserveAspectRatio="xMidYMid meet">
<metadata>
Created by potrace 1.11, written by Peter Selinger 2001-2013
</metadata>
<g transform="translate(0.000000,1024.000000) scale(0.100000,-0.100000)"
fill="#000000" stroke="none">
<path d="M4845 10004 c-285 -14 -631 -68 -945 -148 -603 -153 -1188 -431
-1695 -806 -339 -250 -731 -640 -1002 -995 -215 -284 -439 -675 -592 -1033
-160 -377 -290 -851 -340 -1247 -6 -44 -16 -123 -23 -175 -18 -132 -17 -829 0
-970 37 -301 76 -518 132 -735 266 -1035 858 -1945 1705 -2620 690 -550 1533
-903 2420 -1015 514 -65 1072 -45 1575 56 1185 238 2210 883 2949 1854 332
436 603 964 765 1490 94 306 149 576 198 970 17 141 18 838 0 970 -7 52 -17
131 -23 175 -42 335 -145 742 -269 1070 -160 422 -408 873 -663 1210 -271 355
-664 745 -1002 995 -507 375 -1091 652 -1695 807 -249 63 -413 92 -750 133
-86 11 -615 21 -745 14z m1944 -1060 c901 -391 1642 -1100 2076 -1985 287
-587 425 -1181 425 -1834 0 -311 -33 -667 -65 -691 -8 -6 -72 -23 -142 -38
-801 -171 -971 -207 -1103 -236 -74 -16 -272 -59 -440 -95 -168 -36 -323 -70
-345 -75 -22 -5 -105 -23 -185 -40 -80 -17 -163 -35 -185 -40 -22 -6 -166 -37
-320 -69 -528 -112 -850 -181 -895 -192 -71 -17 -113 -26 -315 -69 -104 -22
-208 -45 -230 -50 -22 -5 -157 -35 -300 -65 -403 -86 -405 -87 -405 -95 0 -4
14 -38 31 -76 39 -84 69 -225 69 -319 0 -109 -32 -244 -84 -348 -53 -109 -117
-191 -208 -267 -57 -47 -295 -191 -577 -348 -309 -172 -682 -130 -933 107 -97
91 -134 145 -312 459 -77 133 -142 242 -145 242 -4 0 -67 -77 -140 -170 -73
-94 -137 -172 -141 -175 -18 -11 -39 10 -126 128 -127 171 -202 284 -302 460
-137 239 -312 638 -316 719 l-1 32 100 12 c55 6 145 17 200 22 344 37 327 34
357 61 15 15 163 171 330 347 167 177 532 564 813 860 280 297 667 706 859
909 423 448 926 954 1083 1090 337 292 608 440 1013 553 324 91 568 121 783
97 276 -30 415 -92 473 -212 25 -51 29 -69 29 -148 0 -351 -381 -807 -885
-1060 -133 -66 -250 -109 -263 -96 -15 15 41 145 163 386 129 253 185 347 252
420 48 53 50 56 38 86 -19 46 -145 154 -230 198 -147 76 -291 102 -343 61 -38
-30 -119 -208 -243 -539 -141 -371 -230 -699 -263 -966 -24 -188 44 -344 205
-470 74 -59 217 -145 242 -145 16 0 15 26 -4 101 -25 98 -15 262 25 414 18 66
38 129 46 141 17 27 133 45 340 53 306 12 572 -15 689 -69 67 -32 145 -106
172 -165 49 -103 25 -242 -54 -323 -115 -117 -383 -253 -667 -338 -120 -36
-311 -45 -365 -17 -28 14 -36 25 -38 51 -6 64 -62 16 -62 -54 0 -116 124 -332
270 -467 75 -70 112 -81 234 -72 308 24 598 150 797 347 113 111 168 208 194
343 19 99 19 162 1 257 -41 214 -134 380 -280 501 -93 76 -218 139 -334 166
-29 7 -52 19 -52 26 0 7 59 52 132 101 214 142 338 274 432 461 60 120 80 208
79 358 0 235 -70 468 -181 605 -170 208 -447 358 -776 421 -140 26 -382 29
-528 5 -54 -9 -102 -16 -108 -16 -27 0 -1 43 73 121 45 47 225 237 400 422
214 226 326 337 339 337 11 0 68 -21 127 -46z"/>
<path d="M3900 3280 c-19 -4 -78 -17 -130 -28 -141 -31 -271 -59 -400 -87
-377 -80 -814 -176 -818 -180 -5 -4 171 -314 265 -467 97 -158 192 -218 354
-226 67 -3 112 0 147 10 27 8 170 84 318 169 304 174 354 214 406 325 67 142
47 304 -54 452 -30 44 -31 44 -88 32z"/>
</g>
</svg>
